<svg width="20" height="21" viewBox="0 0 20 21" fill="none" xmlns="http://www.w3.org/2000/svg">
<path d="M9.99 0.840271C4.47 0.840271 0 5.32027 0 10.8403C0 16.3603 4.47 20.8403 9.99 20.8403C15.52 20.8403 20 16.3603 20 10.8403C20 5.32027 15.52 0.840271 9.99 0.840271ZM16.92 6.84027H13.97C13.657 5.60173 13.1936 4.40617 12.59 3.28027C14.4141 3.90827 15.9512 5.17199 16.92 6.84027ZM10 2.88027C10.83 4.08027 11.48 5.41027 11.91 6.84027H8.09C8.52 5.41027 9.17 4.08027 10 2.88027ZM2.26 12.8403C2.1 12.2003 2 11.5303 2 10.8403C2 10.1503 2.1 9.48027 2.26 8.84027H5.64C5.56 9.50027 5.5 10.1603 5.5 10.8403C5.5 11.5203 5.56 12.1803 5.64 12.8403H2.26ZM3.08 14.8403H6.03C6.35 16.0903 6.81 17.2903 7.41 18.4003C5.58397 17.7757 4.04583 16.5111 3.08 14.8403ZM6.03 6.84027H3.08C4.04583 5.16945 5.58397 3.90484 7.41 3.28027C6.80643 4.40617 6.34298 5.60173 6.03 6.84027ZM10 18.8003C9.17 17.6003 8.52 16.2703 8.09 14.8403H11.91C11.48 16.2703 10.83 17.6003 10 18.8003ZM12.34 12.8403H7.66C7.57 12.1803 7.5 11.5203 7.5 10.8403C7.5 10.1603 7.57 9.49027 7.66 8.84027H12.34C12.43 9.49027 12.5 10.1603 12.5 10.8403C12.5 11.5203 12.43 12.1803 12.34 12.8403ZM12.59 18.4003C13.19 17.2903 13.65 16.0903 13.97 14.8403H16.92C15.9512 16.5085 14.4141 17.7723 12.59 18.4003ZM14.36 12.8403C14.44 12.1803 14.5 11.5203 14.5 10.8403C14.5 10.1603 14.44 9.50027 14.36 8.84027H17.74C17.9 9.48027 18 10.1503 18 10.8403C18 11.5303 17.9 12.2003 17.74 12.8403H14.36Z" fill="#EEEEEE"/>
</svg>
