<svg width="75" height="66" viewBox="0 0 75 66" fill="none" xmlns="http://www.w3.org/2000/svg">
<path d="M38.4511 15.3905C38.3013 15.8929 38.5874 16.4209 39.0895 16.5706L39.1892 16.6003L39.1935 16.5954C39.6643 16.6805 40.1313 16.3985 40.2697 15.9315C41.5305 11.695 45.5028 8.73536 49.9283 8.73536C50.4523 8.73536 50.8772 8.31041 50.8772 7.78647C50.8772 7.26252 50.4523 6.83758 49.9283 6.83758C44.4893 6.83758 39.9187 10.4589 38.4511 15.3905ZM38.4511 15.3905L38.6058 15.4367M38.4511 15.3905C38.4511 15.3906 38.4511 15.3906 38.4511 15.3906L38.6058 15.4367M38.6058 15.4367C38.4815 15.8535 38.7188 16.2916 39.1356 16.4159L38.6058 15.4367Z" fill="#EEEEEE" stroke="#EEEEEE" stroke-width="0.322847"/>
<path d="M60.952 46.3721H56.2274C55.7926 46.3721 55.4399 46.0194 55.4399 45.5846C55.4399 45.1498 55.7926 44.7972 56.2274 44.7972H60.952C67.4648 44.7972 72.7639 39.4981 72.7639 32.9853C72.7639 26.4726 67.4648 21.1735 60.952 21.1735H60.8384C60.6101 21.1735 60.3929 21.0745 60.2433 20.9018C60.0937 20.7292 60.0262 20.5002 60.0588 20.2741C60.1292 19.7836 60.1646 19.2909 60.1646 18.8111C60.1646 13.1668 55.572 8.57415 49.9276 8.57415C47.7317 8.57415 45.6376 9.26036 43.8714 10.5591C43.4833 10.8443 42.9321 10.7177 42.7077 10.2908C37.7057 0.765982 24.641 -0.513102 17.8676 7.77265C15.0142 11.2633 13.8931 15.8041 14.7915 20.2297C14.8905 20.7185 14.5164 21.1741 14.0197 21.1741H13.7042C7.19143 21.1741 1.89237 26.4732 1.89237 32.9859C1.89237 39.4987 7.19143 44.7978 13.7042 44.7978H18.4289C18.8637 44.7978 19.2163 45.1504 19.2163 45.5852C19.2163 46.02 18.8637 46.3727 18.4289 46.3727H13.7042C6.32287 46.3727 0.317383 40.3672 0.317383 32.9859C0.317383 25.8116 5.99039 19.9372 13.086 19.6132C12.4195 15.0217 13.6941 10.3903 16.6481 6.77596C23.9 -2.09584 37.7977 -1.10143 43.6726 8.79128C45.5468 7.61627 47.6914 6.99987 49.9273 6.99987C56.7658 6.99987 62.1847 12.8203 61.7105 19.6205C68.7408 20.0148 74.3385 25.8583 74.3385 32.9853C74.3385 40.3672 68.333 46.3721 60.9517 46.3721L60.952 46.3721Z" fill="#EEEEEE"/>
<path d="M17.3742 45.14C17.3742 56.0844 26.278 64.988 37.2223 64.988C48.1667 64.988 57.0703 56.0843 57.0703 45.14C57.0703 34.1955 48.1667 25.2919 37.2223 25.2919C26.2778 25.2919 17.3742 34.1957 17.3742 45.14ZM19.2723 45.14C19.2723 35.2427 27.3248 27.19 37.2223 27.19C47.1196 27.19 55.1722 35.2425 55.1722 45.14C55.1722 55.0372 47.1196 63.0899 37.2223 63.0899C27.325 63.0899 19.2723 55.0374 19.2723 45.14Z" fill="#EEEEEE" stroke="#EEEEEE" stroke-width="0.322847"/>
<path d="M36.8444 53.0651C36.8444 53.4725 37.1749 53.803 37.5824 53.803C37.9898 53.803 38.3203 53.473 38.3203 53.0651V38.0757C38.3203 37.6683 37.9898 37.3378 37.5824 37.3378C37.1749 37.3378 36.8444 37.6683 36.8444 38.0757V53.0651Z" fill="#EEEEEE" stroke="#EEEEEE" stroke-width="0.322847"/>
<path d="M37.5822 39.1207L33.4921 43.2108C33.2041 43.4993 32.7366 43.4991 32.4483 43.2109C32.1601 42.9226 32.1601 42.4556 32.4483 42.1673L37.0603 37.5554L37.5822 39.1207ZM37.5822 39.1207L41.6724 43.2109C41.8163 43.3548 42.0057 43.427 42.1942 43.427L37.5822 39.1207ZM42.1942 43.427C42.3824 43.427 42.5719 43.3554 42.7161 43.2108L42.1942 43.427Z" fill="#EEEEEE" stroke="#EEEEEE" stroke-width="0.322847"/>
</svg>
